<?xml version="1.0" standalone="no"?>
<!DOCTYPE svg PUBLIC "-//W3C//DTD SVG 20010904//EN"
 "http://www.w3.org/TR/2001/REC-SVG-20010904/DTD/svg10.dtd">
<svg version="1.0" xmlns="http://www.w3.org/2000/svg"
 width="256.000000pt" height="256.000000pt" viewBox="0 0 256.000000 256.000000"
 preserveAspectRatio="xMidYMid meet">

<g transform="translate(0.000000,256.000000) scale(0.100000,-0.100000)"
fill="#000000" stroke="none">
<path d="M1575 1978 c-106 -38 -181 -126 -300 -353 -32 -60 -79 -148 -105
-195 -26 -47 -75 -139 -110 -205 -139 -267 -228 -348 -345 -315 -62 17 -110
68 -170 180 -28 50 -58 99 -69 108 -13 12 -41 18 -100 20 l-81 4 34 -24 c30
-20 41 -39 76 -139 56 -156 88 -220 138 -271 54 -56 107 -81 184 -86 144 -10
232 56 343 260 22 40 40 69 40 64 0 -5 9 -1 19 8 40 37 62 19 121 -99 83 -165
190 -293 291 -346 53 -28 159 -33 205 -9 55 28 85 52 80 66 -3 7 -1 16 5 20 6
4 6 11 -2 20 -9 11 -8 14 2 14 11 0 11 2 -1 10 -13 9 -13 10 0 10 12 0 12 2 1
9 -9 6 -10 10 -2 16 9 5 9 10 0 21 -9 11 -8 14 2 14 12 0 12 2 0 9 -11 7 -11
9 0 14 11 4 11 6 1 6 -7 1 -10 6 -6 13 4 6 8 23 8 37 1 25 0 25 -43 -17 -51
-50 -98 -72 -153 -72 -84 0 -152 59 -229 200 -73 133 -78 139 -111 160 -19 12
-51 20 -75 20 -34 0 -46 -5 -59 -25 -9 -14 -19 -23 -22 -21 -6 7 176 347 252
469 96 155 169 217 255 217 39 0 109 -41 155 -90 32 -34 46 -44 46 -32 0 10
-6 24 -12 31 -10 11 -10 13 0 7 7 -5 12 -1 12 9 0 9 -4 14 -8 11 -5 -3 -9 1
-9 9 0 8 4 12 9 9 4 -3 8 2 8 11 0 9 -4 14 -8 11 -5 -3 -9 1 -9 9 0 8 4 12 9
9 4 -3 8 2 8 11 0 9 -4 14 -8 11 -5 -3 -9 1 -9 9 0 8 4 12 9 9 4 -3 8 2 8 11
0 9 -4 14 -8 11 -5 -3 -9 1 -9 9 0 8 4 12 9 9 4 -3 8 3 8 13 0 25 -56 78 -102
97 -42 18 -128 20 -173 4z"/>
<path d="M635 1826 c-56 -26 -113 -84 -146 -148 -12 -24 -42 -97 -66 -162 -24
-68 -54 -131 -68 -146 -14 -14 -25 -28 -25 -31 0 -9 125 3 138 13 7 6 33 50
57 97 56 108 93 154 148 180 110 53 198 5 300 -165 21 -34 45 -65 54 -68 29
-11 100 5 122 28 11 12 27 38 36 59 l16 38 -31 -22 c-16 -13 -32 -21 -34 -18
-2 2 -16 29 -31 59 -71 142 -165 253 -248 291 -61 27 -158 25 -222 -5z"/>
<path d="M1590 1634 c-63 -30 -119 -56 -125 -58 -5 -3 24 -36 64 -74 l75 -69
-135 -13 c-73 -6 -139 -13 -145 -15 -16 -5 -135 -228 -126 -236 4 -3 97 -14
206 -25 l200 -18 -72 -65 c-40 -36 -72 -69 -72 -72 0 -3 55 -31 123 -63 l123
-57 375 186 c449 223 439 218 439 225 0 3 -141 75 -312 160 -172 84 -356 175
-408 200 l-95 47 -115 -53z"/>
<path d="M1085 1382 c-16 -1 -118 -11 -225 -22 -373 -39 -700 -70 -738 -71
-71 -1 5 -16 148 -28 74 -7 196 -19 270 -27 74 -7 203 -21 285 -29 83 -9 160
-18 172 -20 18 -4 28 8 72 92 28 53 50 99 49 102 -2 3 -16 5 -33 3z"/>
</g>
</svg>
